<svg width="180" height="51" viewBox="0 0 180 51" fill="none" xmlns="http://www.w3.org/2000/svg">
<path fill-rule="evenodd" clip-rule="evenodd" d="M16.0251 0.0737883C11.2102 0.943258 6.77159 3.42096 4.19944 6.67495C-0.992893 13.2437 -1.40282 21.8687 3.15124 28.7354C4.57089 30.8757 5.60318 31.5821 6.6288 31.1149C7.98135 30.4986 7.92792 29.6463 6.38965 27.3104C3.74181 23.2893 2.90128 19.5777 3.73449 15.5862C4.35813 12.5994 5.44036 10.538 7.62262 8.18078C13.4236 1.91513 23.3968 1.91513 29.1978 8.18078C31.3766 10.5341 32.4598 12.5943 33.091 15.5862C33.9421 19.6181 33.1559 23.2734 30.6241 27.0585C28.8881 29.6542 28.8 30.4807 30.1916 31.1149C31.2548 31.5992 32.3049 30.8337 33.8441 28.4524C36.9314 23.6757 37.641 18.0363 35.8667 12.3729C35.0704 9.831 32.4378 6.07994 30.163 4.24591C28.2002 2.66343 25.3685 1.1681 23.1751 0.555272C21.7526 0.157746 17.2412 -0.145964 16.0251 0.0737883ZM10.834 39.7851C10.1951 40.424 10.1515 41.2197 10.7135 41.988C12.0107 43.7619 23.1309 43.9925 25.8042 42.3013C26.6565 41.7619 26.7446 40.5433 25.9864 39.7851C25.5463 39.3449 25.1717 39.2992 23.8398 39.5237C22.9525 39.6735 20.5092 39.7956 18.4102 39.7956C16.3113 39.7956 13.8679 39.6735 12.9806 39.5237C11.6488 39.2992 11.2741 39.3449 10.834 39.7851ZM12.5545 47.2417C11.7092 48.087 11.7111 48.9164 12.5602 49.6848C13.161 50.2283 13.762 50.2906 18.4102 50.2906C23.0584 50.2906 23.6595 50.2283 24.2602 49.6848C25.1383 48.8904 25.1154 47.7238 24.2106 47.1311C23.6188 46.7434 23.0978 46.7176 21.2689 46.9864C19.2492 47.2831 15.6495 47.1645 13.9061 46.744C13.4647 46.6378 12.98 46.8162 12.5545 47.2417Z" fill="#0F313B"/>
<path fill-rule="evenodd" clip-rule="evenodd" d="M17.5431 17.1369C17.2616 17.3557 15.4387 21.1122 13.4924 25.485C10.5142 32.1758 10.005 33.5487 10.2792 34.151C10.657 34.9811 12.2172 35.1458 12.8198 34.4194C13.024 34.1733 14.3253 31.4183 15.7113 28.2975C17.0972 25.1765 18.3432 22.6784 18.4797 22.7465C18.6164 22.8142 19.5472 24.7462 20.5484 27.0398C23.643 34.1294 23.9779 34.6926 25.1657 34.8071C25.9932 34.8869 26.2645 34.7581 26.5393 34.1552C26.8353 33.5058 26.4031 32.3272 23.3562 25.4691C20.0653 18.0627 19.3154 16.7394 18.41 16.7394C18.2144 16.7394 17.8242 16.9184 17.5431 17.1369ZM17.4327 33.8378C16.2866 34.6227 16.9719 36.7747 18.368 36.7747C19.1965 36.7747 20.1591 35.876 20.1591 35.1029C20.1591 33.9784 18.4116 33.1677 17.4327 33.8378Z" fill="#F05A22"/>
<path fill-rule="evenodd" clip-rule="evenodd" d="M81.311 10.2396L80.6292 10.9386V21.4768C80.6292 31.2231 80.6623 32.1043 81.0691 33.2017C82.1088 36.0069 84.9203 36.9876 88.152 35.6723C89.1249 35.2763 89.165 35.1137 88.7685 33.1678C88.4694 31.6994 88.2168 31.3199 87.8137 31.7332C87.6598 31.891 87.0862 32.0201 86.5389 32.0201C85.7941 32.0201 85.4834 31.9039 85.3026 31.5576C85.1477 31.2606 85.0612 27.635 85.0612 21.4296C85.0612 14.9725 84.9754 11.5119 84.8027 11.0039C84.2919 9.50161 82.4288 9.09363 81.311 10.2396ZM152.021 10.0055C150.894 11.1615 151.307 13.4499 152.773 14.1628C153.837 14.6805 154.29 14.6657 155.221 14.0834C156.158 13.4977 156.524 12.5935 156.331 11.3404C156.103 9.86152 155.68 9.54059 153.955 9.54059C152.8 9.54059 152.375 9.6427 152.021 10.0055ZM61.1317 17.2807C59.4949 17.9047 58.5761 18.5264 57.5917 19.6758C55.9392 21.6049 55.0325 25.0515 55.4277 27.9004C55.6848 29.7528 56.2838 31.6495 56.7323 32.0309C56.9178 32.1887 57.0694 32.4571 57.0694 32.6268C57.0694 33.07 59.0319 34.7794 60.2148 35.3662C61.5586 36.0332 63.8751 36.3927 65.5507 36.1944C67.0455 36.0174 69.31 34.9363 69.854 34.1402C70.1763 33.6683 70.2032 33.6855 70.616 34.6309C71.2909 36.1762 72.8274 36.5469 74.0798 35.4664L74.7975 34.8473L74.794 26.5583C74.7919 21.9993 74.7133 18.1555 74.6191 18.0163C74.2482 17.4689 73.2592 16.9543 72.5878 16.9593C71.6958 16.966 70.944 17.5627 70.5246 18.5967C70.2146 19.3608 70.181 19.379 69.8733 18.9456C68.4527 16.9445 64.1595 16.1269 61.1317 17.2807ZM123.157 17.2255C122.258 17.523 121.313 18.0656 120.649 18.6642L119.584 19.6253V18.8761C119.584 17.3219 117.586 16.405 116.211 17.3286C115.242 17.9797 115.152 18.761 115.152 26.5631C115.152 34.6435 115.255 35.3866 116.439 35.8479C117.425 36.2322 118.102 36.1258 118.867 35.4664L119.584 34.8473V30.1065V25.366L120.349 23.8512C121.317 21.9342 122.521 21.1525 124.508 21.1491C126.145 21.1465 127.307 21.7518 127.963 22.9494C128.413 23.7706 128.448 24.2109 128.448 29.0155C128.448 33.1685 128.518 34.3348 128.801 34.8946C129.478 36.2362 130.975 36.4909 132.163 35.4664L132.881 34.8473V30.3684C132.881 25.3844 133.126 23.9911 134.221 22.7492C136.181 20.5278 139.926 20.6244 141.22 22.9296C141.72 23.8201 141.745 24.1097 141.745 29.0304C141.745 33.1702 141.815 34.3348 142.097 34.8946C142.774 36.2362 144.271 36.4909 145.459 35.4664L146.177 34.8473V28.6783C146.177 21.5236 146.035 20.7514 144.381 18.8653C142.632 16.8706 139.625 16.2134 136.626 17.1705C135.034 17.6784 133.305 18.9906 132.733 20.1239L132.36 20.8643L132.064 20.1648C131.572 19.0028 130.072 17.7248 128.584 17.1997C126.865 16.5937 125.039 16.6023 123.157 17.2255ZM166.375 17.2092C162.789 18.4167 160.754 21.4019 160.472 25.8672C160.356 27.7189 160.415 28.1984 160.972 29.9554C162.403 34.4661 166.338 36.8913 170.956 36.1093C172.791 35.7986 173.568 35.4449 174.749 34.3824C175.526 33.6822 175.568 33.6712 175.568 34.166C175.568 34.453 175.875 35.002 176.25 35.3866C177.213 36.3738 178.399 36.3568 179.323 35.3428L180 34.6V26.4761V18.3521L179.318 17.6531C178.377 16.6884 177.191 16.6884 176.25 17.6531C175.875 18.0376 175.568 18.5829 175.568 18.8648C175.568 19.3367 175.487 19.3096 174.551 18.5231C172.474 16.7788 169.211 16.2543 166.375 17.2092ZM92.2574 17.6705L91.5588 18.3868L91.6344 24.7851C91.7069 30.9213 91.7326 31.2346 92.264 32.4403C92.8954 33.8737 94.0179 34.9862 95.5192 35.6671C96.3897 36.0619 96.946 36.1217 99.03 36.044C101.239 35.9615 101.626 35.8787 102.614 35.2785C103.223 34.9083 103.956 34.2688 104.242 33.8572L104.761 33.1092L104.937 34.1657C105.156 35.4806 105.505 35.8484 106.689 36.0112C107.869 36.1736 108.569 35.7926 108.991 34.7588C109.406 33.7391 109.475 19.631 109.07 18.4403C108.587 17.0196 106.775 16.4901 105.589 17.4237C105.009 17.8798 105.004 17.9121 104.858 22.8588C104.777 25.5958 104.629 28.1042 104.527 28.433C103.921 30.4028 101.855 32.0235 99.9587 32.0163C98.557 32.0108 97.194 31.1848 96.6078 29.9853C96.1947 29.1399 96.128 28.4067 96.0246 23.569L95.908 18.1072L95.2535 17.5306C94.3099 16.6994 93.152 16.7534 92.2574 17.6705ZM152.493 17.5732L151.775 18.1923V26.5198V34.8473L152.493 35.4664C153.68 36.4909 155.178 36.2362 155.855 34.8946C156.148 34.3142 156.207 32.8985 156.207 26.516C156.207 21.3306 156.122 18.6661 155.946 18.3134C155.228 16.8739 153.686 16.5434 152.493 17.5732ZM66.5325 20.893C69.0163 21.6528 70.3655 23.6334 70.3655 26.5198C70.3655 28.5188 69.7877 29.9613 68.515 31.1401C67.4623 32.1153 66.5537 32.3554 64.4403 32.2174C62.7158 32.105 61.6552 31.4299 60.6237 29.7889C59.8035 28.4839 59.5859 25.3925 60.2234 24.1016C61.1828 22.1586 62.2766 21.2367 64.184 20.7636C65.2183 20.5073 65.2827 20.5108 66.5325 20.893ZM172.44 21.1635C176.048 22.7091 176.617 28.7458 173.401 31.3572C172.465 32.1175 172.374 32.1397 170.212 32.1397C168.128 32.1397 167.932 32.0969 167.123 31.462C166.648 31.0894 165.971 30.2823 165.62 29.6684C165.07 28.7063 164.981 28.2888 164.978 26.6394C164.973 24.2444 165.682 22.6639 167.223 21.6358C168.814 20.574 170.671 20.4059 172.44 21.1635Z" fill="#F05A22"/>
</svg>
